{"title":"Captain America Civil War (2016) MULTI 1080p Blu-ray x264 DTS MS","uid":15908512,"size":9253689237,"categoryP":"video","categoryS":"hd___movies","magnet":"?xt=urn:btih:9ce3d871425846c4ba615494c07857f990200c98&amp;dn=Captain+America+Civil+War+%282016%29+MULTI+1080p+Blu-ray+x264+DTS+MS&amp;tr=udp%3A%2F%2Ftracker.leechers-paradise.org%3A6969&amp;tr=udp%3A%2F%2Fzer0day.ch%3A1337&amp;tr=udp%3A%2F%2Fopen.demonii.com%3A1337&amp;tr=udp%3A%2F%2Ftracker.coppersurfer.tk%3A6969&amp;tr=udp%3A%2F%2Fexodus.desync.com%3A6969","seeders":21,"leechers":60,"uploader":"SaM","files":3,"time":1475077869,"description":"\n- HollyWooD Movie-\r\n\r\nCaptain America\r\n- CiVil War -\r\n** 2016 **\r\n1080p / Blu-ray / x264\r\nEnglish DTS 5.1\r\nHindi AC3 5.1 Original Audio @ 640 Kbps\r\nEnglish, French &amp; Dutch Subs\r\n\r\nForced &amp; Hearing Impaired subs included \r\n \nhttp://extraimago.com/image/wyZN  \nhttp://extraimago.com/image/wyZ2  \nhttp://extraimago.com/image/wyZw  \nhttp://extraimago.com/image/wyZa  \nhttp://extraimago.com/image/wyZ8  \nhttp://extraimago.com/image/wyKf  \nhttp://extraimago.com/image/wyKW  \nhttp://extraimago.com/image/wyKA  \nhttp://extraimago.com/image/wyKv  \nhttp://extraimago.com/image/wyKu  \nhttp://extraimago.com/image/wyKV  \nhttp://extraimago.com/image/wyK6  \nhttp://extraimago.com/image/wyKx  \nhttp://extraimago.com/image/wyKt  \nhttp://extraimago.com/image/wyKo\r\n\r\n\r\nSOURCE: BD50 @ HDT\r\n\r\nFormat : Matroska\r\nFile size : 8.51 GiB\r\nDuration : 2 h 27 min\r\nOverall bit rate : 8 246 kb/s\r\n\r\nVideo\r\nFormat : AVC\r\nFormat/Info : Advanced Video Codec\r\nFormat profile :   \r\nFormat settings, CABAC : Yes\r\nFormat settings, ReFrames : 5 frames\r\nCodec ID : V_MPEG4/ISO/AVC\r\nDuration : 2 h 27 min\r\nBit rate : 6 075 kb/s\r\nWidth : 1 920 pixels\r\nHeight : 800 pixels\r\nDisplay aspect ratio : 2.40:1\r\nFrame rate mode : Constant\r\nFrame rate : 23.976 (24000/1001) FPS\r\nColor space : YUV\r\nChroma subsampling : 4:2:0\r\nBit depth : 8 bits\r\nScan type : Progressive\r\nBits/(Pixel*Frame) : 0.165\r\nStream size : 6.27 GiB (74%)\r\n\r\nAudio\r\nFormat : DTS\r\nFormat/Info : Digital Theater Systems\r\nMode : 16\r\nFormat settings, Endianness : Big\r\nCodec ID : A_DTS\r\nDuration : 2 h 27 min\r\nBit rate mode : Constant\r\nBit rate : 1 509 kb/s\r\nChannel(s) : 6 channels\r\nChannel positions : Front: L C R, Side: L R, LFE\r\nSampling rate : 48.0 kHz\r\nFrame rate : 93.750 FPS (512 spf)\r\nBit depth : 24 bits\r\nCompression mode : Lossy\r\nStream size : 1.56 GiB (18%)\r\nLanguage : English\r\nDefault : Yes\r\nForced : No\r\n\r\nAudio #2\r\nID : 3\r\nFormat : AC-3\r\nFormat/Info : Audio Coding 3\r\nMode extension : CM (complete main)\r\nFormat settings, Endianness : Big\r\nCodec ID : A_AC3\r\nDuration : 2 h 27 min\r\nBit rate mode : Constant\r\nBit rate : 640 kb/s\r\nChannel(s) : 6 channels\r\nChannel positions : Front: L C R, Side: L R, LFE\r\nSampling rate : 48.0 kHz\r\nFrame rate : 31.250 FPS (1536 spf)\r\nCompression mode : Lossy\r\nStream size : 676 MiB (8%)\r\nLanguage : Hindi\r\nDefault : No\r\nForced : No\r\n\r\nChapters = Yes\r\nSample : Included","torrent":{"xt":"urn:btih:9ce3d871425846c4ba615494c07857f990200c98","amp;dn":"Captain+America+Civil+War+%282016%29+MULTI+1080p+Blu-ray+x264+DTS+MS","amp;tr":["udp%3A%2F%2Ftracker.leechers-paradise.org%3A6969","udp%3A%2F%2Fzer0day.ch%3A1337","udp%3A%2F%2Fopen.demonii.com%3A1337","udp%3A%2F%2Ftracker.coppersurfer.tk%3A6969","udp%3A%2F%2Fexodus.desync.com%3A6969"],"infoHash":"9ce3d871425846c4ba615494c07857f990200c98","infoHashBuffer":{"type":"Buffer","data":[156,227,216,113,66,88,70,196,186,97,84,148,192,120,87,249,144,32,12,152]},"announce":[],"urlList":[]}}